<?xml version="1.0" encoding="UTF-8" standalone="no"?>
<!-- Created with Inkscape (http://www.inkscape.org/) -->

<svg xmlns:dc="http://purl.org/dc/elements/1.1/" xmlns:cc="http://creativecommons.org/ns#" xmlns:rdf="http://www.w3.org/1999/02/22-rdf-syntax-ns#" xmlns:svg="http://www.w3.org/2000/svg" xmlns="http://www.w3.org/2000/svg" xmlns:xlink="http://www.w3.org/1999/xlink" version="1.1" width="424.39389" height="268.71222" id="svg2">
  <defs id="defs4" />
  <metadata id="metadata7">
    <rdf:RDF>
      <cc:Work rdf:about="">
        <dc:format>image/svg+xml</dc:format>
        <dc:type rdf:resource="http://purl.org/dc/dcmitype/StillImage" />
        <dc:title></dc:title>
      </cc:Work>
    </rdf:RDF>
  </metadata>
  <g transform="translate(-113.40625,-344.53779)" id="layer1">
    <path d="M 637.14284,125.71682 A 93.571426,93.571426 0 1 1 449.99998,125.71682 93.571426,93.571426 0 1 1 637.14284,125.71682 z" transform="matrix(0.36211176,-1.3514195,1.3514195,0.36211176,33.776761,1177.322)" id="path3998" style="color:#000000;fill:none;stroke:none;stroke-width:1.75507557;marker:none;visibility:visible;display:inline;overflow:visible;enable-background:accumulate" />
    <path d="M 238.38968,364.12403 C 169.83869,364.12403 114.27513,419.68759 114.27513,488.23858 114.27513,556.78957 169.83869,612.38112 238.38968,612.38112 268.37478,612.38112 295.84609,601.67361 317.29787,583.96969 314.95669,581.96254 312.59759,579.90694 310.35597,577.67159 L 310.27199,577.61561 C 307.41234,574.75597 304.69993,571.74867 302.12644,568.63033 299.55684,565.51667 297.12413,562.28542 294.84864,558.91725 292.57607,555.55341 290.46648,552.05486 288.52255,548.4764 286.57312,544.88781 284.7996,541.19178 283.20416,537.41974 281.60936,533.64921 280.18325,529.79805 278.94944,525.83124 L 278.92145,525.77525 C 277.69773,521.83386 276.67943,517.80142 275.84237,513.71089 275.00039,509.59623 274.34216,505.41667 273.91096,501.17067 273.47964,496.92347 273.26715,492.59969 273.26715,488.23858 273.26715,483.87747 273.47974,479.58069 273.91096,475.33448 274.34216,471.08848 275.00039,466.90892 275.84237,462.79426 276.68354,458.68363 277.71777,454.63387 278.94944,450.67391 280.18234,446.71001 281.60779,442.83167 283.20416,439.05743 284.80117,435.28166 286.57549,431.61296 288.52255,428.02875 290.46648,424.4503 292.57607,420.95174 294.84864,417.5879 297.12413,414.21973 299.55684,410.98848 302.12644,407.87483 304.69993,404.75648 307.41234,401.74918 310.27199,398.88954 312.53526,396.62628 314.93065,394.56306 317.29787,392.53546 295.84609,374.83154 268.37478,364.12403 238.38968,364.12403 z" id="enter" style="color:#000000;fill:#ffffff;stroke:#00473c;stroke-width:1.74291492;stroke-opacity:1;marker:none;visibility:visible;display:inline;overflow:visible;enable-background:accumulate" />
    <path d="M 319.46906,393.99102 C 317.01814,396.0888 314.58314,398.20514 312.30321,400.48506 309.4955,403.29277 306.82717,406.2373 304.29763,409.3024 301.76809,412.36749 299.36237,415.54584 297.1318,418.84752 294.90122,422.1492 292.82848,425.57496 290.91767,429.09243 289.00686,432.60989 287.28147,436.21271 285.71124,439.92516 284.14101,443.63761 282.72138,447.45907 281.5125,451.34571 280.30364,455.23236 279.28814,459.20209 278.46142,463.24212 277.63472,467.28216 277.00975,471.38577 276.58599,475.55841 276.16225,479.73104 275.94219,483.95414 275.94219,488.23858 275.94219,492.52301 276.16225,496.77411 276.58599,500.94674 277.00975,505.11938 277.63472,509.22299 278.46142,513.26303 279.28814,517.30306 280.30364,521.27279 281.5125,525.15944 282.72138,529.04608 284.14101,532.83955 285.71124,536.552 287.28147,540.26445 289.00686,543.89526 290.91767,547.41273 292.82848,550.93019 294.90122,554.35595 297.1318,557.65763 299.36237,560.95931 301.76809,564.13766 304.29763,567.20275 306.82717,570.26785 309.4955,573.21238 312.30321,576.02009 314.58314,578.30001 317.01814,580.41635 319.46906,582.51413 346.05729,559.74909 362.96793,525.98565 362.96793,488.23858 362.96793,450.49151 346.05729,416.75607 319.46906,393.99102 z" id="update" style="color:#000000;fill:#ffffff;stroke:#04529d;stroke-width:1.74276471;stroke-miterlimit:4;stroke-opacity:1;stroke-dasharray:none;marker:none;visibility:visible;display:inline;overflow:visible;enable-background:accumulate" />
    <path d="M 400.49248,364.12403 C 370.5029,364.12403 343.01037,374.74664 321.5563,392.45149 348.50606,415.62025 365.64301,449.91512 365.64301,488.23858 365.64301,526.54789 348.51754,560.85652 321.5843,584.02567 343.03563,601.72597 370.50918,612.38112 400.49248,612.38112 469.04347,612.38112 524.63503,556.78957 524.63503,488.23858 524.63503,419.68759 469.04347,364.12403 400.49248,364.12403 z" id="exit" style="color:#000000;fill:#ffffff;stroke:#ff0000;stroke-width:1.74283981;stroke-miterlimit:4;stroke-opacity:1;stroke-dasharray:none;marker:none;visibility:visible;display:inline;overflow:visible;enable-background:accumulate" />
    <text id="text3978" xml:space="preserve" style="font-size:24px;font-style:normal;font-variant:normal;font-weight:normal;font-stretch:normal;line-height:125%;letter-spacing:0px;word-spacing:0px;fill:#04529d;fill-opacity:1;stroke:none;font-family:Lobster;-inkscape-font-specification:Lobster"><textPath xlink:href="#path4020" id="textPath4026"><tspan id="tspan3980" style="fill:#04529d;fill-opacity:1">Data</tspan></textPath></text>
    <text id="text3982" xml:space="preserve" style="font-size:24px;font-style:normal;font-variant:normal;font-weight:normal;font-stretch:normal;line-height:125%;letter-spacing:0px;word-spacing:0px;fill:#04529d;fill-opacity:1;stroke:none;font-family:Lobster;-inkscape-font-specification:Lobster"><textPath xlink:href="#path3998" id="textPath4017"><tspan id="tspan3984" style="fill:#04529d;fill-opacity:1">Dom Elements</tspan></textPath></text>
    <path d="M 637.14284,125.71682 A 93.571426,93.571426 0 1 1 449.99998,125.71682 93.571426,93.571426 0 1 1 637.14284,125.71682 z" transform="matrix(-0.98930774,-0.98930773,0.98930773,-0.98930774,652.00827,1150.3846)" id="path4020" style="color:#000000;fill:none;stroke:none;stroke-width:1.75507557;marker:none;visibility:visible;display:inline;overflow:visible;enable-background:accumulate" />
  </g>
</svg>
