<?xml version="1.0" encoding="UTF-8" standalone="no"?>
<!-- Created with Inkscape (http://www.inkscape.org/) -->

<svg xmlns:dc="http://purl.org/dc/elements/1.1/" xmlns:cc="http://creativecommons.org/ns#" xmlns:rdf="http://www.w3.org/1999/02/22-rdf-syntax-ns#" xmlns:svg="http://www.w3.org/2000/svg" xmlns="http://www.w3.org/2000/svg" xmlns:xlink="http://www.w3.org/1999/xlink" xmlns:sodipodi="http://sodipodi.sourceforge.net/DTD/sodipodi-0.dtd" xmlns:inkscape="http://www.inkscape.org/namespaces/inkscape" width="883.88348" height="444.06305" id="svg3023" version="1.1" inkscape:version="0.48.2 r9819" sodipodi:docname="datamapping.svg" inkscape:export-filename="C:\Code\Presentations\Presentations\ControlPanel\images\datamapping3.png" inkscape:export-xdpi="90" inkscape:export-ydpi="90">
  <defs id="defs3025">
    <linearGradient id="linearGradient4700">
      <stop style="stop-color:#ffffff;stop-opacity:1;" offset="0" id="stop4702" />
      <stop style="stop-color:#ffffff;stop-opacity:0;" offset="1" id="stop4704" />
    </linearGradient>
    <marker inkscape:stockid="Arrow2Mend" orient="auto" refY="0" refX="0" id="Arrow2Mend" style="overflow:visible">
      <path id="path3855" style="font-size:12px;fill-rule:evenodd;stroke-width:0.625;stroke-linejoin:round" d="M 8.7185878,4.0337352 -2.2072895,0.01601326 8.7185884,-4.0017078 C 6.97309,-1.6296469 6.9831476,1.6157441 8.7185878,4.0337352 z" transform="scale(-0.6,-0.6)" inkscape:connector-curvature="0" />
    </marker>
    <marker inkscape:stockid="Arrow1Send" orient="auto" refY="0" refX="0" id="Arrow1Send" style="overflow:visible">
      <path id="path3843" d="M 0,0 5,-5 -12.5,0 5,5 0,0 z" style="fill-rule:evenodd;stroke:#000000;stroke-width:1pt;marker-start:none" transform="matrix(-0.2,0,0,-0.2,-1.2,0)" inkscape:connector-curvature="0" />
    </marker>
    <linearGradient inkscape:collect="always" xlink:href="#linearGradient4700" id="linearGradient4706" x1="-168" y1="608.38043" x2="-168" y2="318.25262" gradientUnits="userSpaceOnUse" gradientTransform="matrix(1,0,0,1.0689655,0,-61.68015)" />
  </defs>
  <sodipodi:namedview id="base" pagecolor="#ffffff" bordercolor="#666666" borderopacity="1.0" inkscape:pageopacity="1" inkscape:pageshadow="2" inkscape:zoom="0.70710678" inkscape:cx="428.44934" inkscape:cy="250.87648" inkscape:document-units="px" inkscape:current-layer="layer2" showgrid="false" inkscape:window-width="1114" inkscape:window-height="962" inkscape:window-x="1591" inkscape:window-y="74" inkscape:window-maximized="0" fit-margin-top="0" fit-margin-left="0" fit-margin-right="0" fit-margin-bottom="0" borderlayer="true" />
  <metadata id="metadata3028">
    <rdf:RDF>
      <cc:Work rdf:about="">
        <dc:format>image/svg+xml</dc:format>
        <dc:type rdf:resource="http://purl.org/dc/dcmitype/StillImage" />
        <dc:title></dc:title>
      </cc:Work>
    </rdf:RDF>
  </metadata>
  <g inkscape:label="Json" inkscape:groupmode="layer" id="layer1" transform="translate(492.14633,-178.3782)" style="display:inline">
    <image y="170.6479" x="-501.5" id="image3050" xlink:href="file:///C:/Code/Presentations/Presentations/ControlPanel/images/json.png" height="672" width="963" inkscape:export-filename="C:\Code\Presentations\Presentations\ControlPanel\images\datamapping.png" inkscape:export-xdpi="90" inkscape:export-ydpi="90" />
  </g>
  <g inkscape:groupmode="layer" id="layer2" inkscape:label="Class" style="display:inline">
    <image transform="translate(492.14633,-178.3782)" y="199.43359" x="30.357138" id="image3039" xlink:href="file:///C:/Code/Presentations/Presentations/ControlPanel/images/menuviewmodel.png" height="363" width="405" />
  </g>
  <g inkscape:groupmode="layer" id="layer3" inkscape:label="Arrows" style="display:inline">
    <path transform="translate(492.14633,-178.3782)" style="opacity:0.25;fill:#000000;stroke:none" d="M 30.34375,199.4375 30.34375,562.4375 435.34375,562.4375 435.34375,199.4375 30.34375,199.4375 z M 168.5,226.375 C 230.63203,226.375 281,236.22474 281,248.375 281,260.52526 230.63203,270.375 168.5,270.375 106.36797,270.375 56,260.52526 56,248.375 56,236.22474 106.36797,226.375 168.5,226.375 z M 247,308.375 C 275.16652,308.375 298,315.31459 298,323.875 298,332.43541 275.16652,339.375 247,339.375 218.83348,339.375 196,332.43541 196,323.875 196,315.31459 218.83348,308.375 247,308.375 z M 249,373.375 C 277.16652,373.375 300,380.31459 300,388.875 300,397.43541 277.16652,404.375 249,404.375 220.83348,404.375 198,397.43541 198,388.875 198,380.31459 220.83348,373.375 249,373.375 z M 262,437.375 C 290.16652,437.375 313,444.31459 313,452.875 313,461.43541 290.16652,468.375 262,468.375 233.83348,468.375 211,461.43541 211,452.875 211,444.31459 233.83348,437.375 262,437.375 z M 265,485.375 C 293.16652,485.375 316,492.31459 316,500.875 316,509.43541 293.16652,516.375 265,516.375 236.83348,516.375 214,509.43541 214,500.875 214,492.31459 236.83348,485.375 265,485.375 z" id="rect4645" inkscape:connector-curvature="0" />
    <path transform="translate(492.14633,-178.3782)" sodipodi:type="arc" style="fill:none;stroke:#ff0000;stroke-width:3;stroke-miterlimit:4;stroke-dasharray:none" id="path3053" sodipodi:cx="168.5" sodipodi:cy="248.36218" sodipodi:rx="112.5" sodipodi:ry="22" d="M 281,248.36218 A 112.5,22 0 1 1 56,248.36218 112.5,22 0 1 1 281,248.36218 z" />
    <path transform="translate(492.14633,-178.3782)" style="font-size:medium;font-style:normal;font-variant:normal;font-weight:normal;font-stretch:normal;text-indent:0;text-align:start;text-decoration:none;line-height:normal;letter-spacing:normal;word-spacing:normal;text-transform:none;direction:ltr;block-progression:tb;writing-mode:lr-tb;text-anchor:start;baseline-shift:baseline;color:#000000;fill:#ff0000;fill-opacity:1;stroke:none;stroke-width:3;marker:none;visibility:visible;display:inline;overflow:visible;enable-background:accumulate;font-family:Sans;-inkscape-font-specification:Sans" d="M -310.6875,201.6875 -326.71875,205.875 -326.84375,205.875 -326.84375,205.90625 -330.96875,207 -327.15625,208.84375 -327.125,208.84375 -312.0625,216.09375 C -313.14481,214.23147 -313.69772,212.17187 -313.75,210.125 L 56.84375,245.84375 57.15625,242.875 -313.5,207.15625 C -313.06035,205.1685 -312.1061,203.27125 -310.6875,201.6875 z M -335.4375,237.78125 -338.96875,240.15625 -352.84375,249.46875 C -350.62102,249.48017 -348.51809,250.10354 -346.6875,251.15625 -384.68338,307.35297 -392.72017,351.75478 -377.6875,385.9375 -361.68762,422.31957 -319.93116,446.55143 -261.84375,461.3125 -145.66893,490.83464 36.499555,482.62046 213.21875,454.84375 L 212.78125,451.875 C 36.285715,479.61655 -145.77493,487.71087 -261.09375,458.40625 -318.75316,443.75394 -359.54841,419.783 -374.96875,384.71875 -389.44623,351.79846 -381.89269,308.58747 -344.28125,252.9375 -342.86835,254.30011 -341.77904,256.01613 -341.15625,257.96875 L -336.65625,242.09375 C -336.61174,242.03234 -336.57583,241.96769 -336.53125,241.90625 L -336.59375,241.875 -335.4375,237.78125 z M -334.65625,259.6875 -348.21875,275.6875 C -346.02725,275.07533 -343.74639,275.07691 -341.65625,275.625 -349.42341,300.79381 -351.44519,321.91793 -348.46875,339.625 -345.00503,360.23096 -334.77266,376.15871 -319.375,388.0625 -288.57969,411.87008 -237.40516,419.97379 -177.28125,420.5 -57.033436,421.55242 99.421924,391.91298 200,391.875 L 200,388.875 C 98.835224,388.91321 -57.51915,418.54789 -177.25,417.5 -237.11543,416.97605 -287.75428,408.70781 -317.53125,385.6875 -332.41974,374.17735 -342.15384,359.03162 -345.5,339.125 -348.36568,322.07678 -346.50358,301.45998 -338.90625,276.71875 -337.21293,277.64034 -335.73853,278.97971 -334.625,280.65625 L -334.65625,264.09375 C -334.63677,264.04031 -334.61328,263.99098 -334.59375,263.9375 L -334.65625,263.90625 -334.65625,259.6875 z M -292.90625,298.5625 -287.875,318.90625 C -287.06251,316.70773 -285.67819,314.85412 -283.9375,313.46875 -238.64605,370.58385 -166.37835,387.03396 -83.78125,382.9375 3.8050721,378.5936 103.20867,351.28975 195.40625,324.8125 L 194.59375,321.90625 C 102.4203,348.37656 3.1388664,375.61889 -83.9375,379.9375 -165.90381,384.00267 -236.82866,367.83201 -281.375,311.90625 -279.69168,311.1416 -277.80282,310.73514 -275.875,310.8125 L -289.3125,301.15625 C -289.3467,301.10576 -289.37209,301.05055 -289.40625,301 L -289.46875,301.03125 -292.90625,298.5625 z" id="path3823" inkscape:connector-curvature="0" />
    <path sodipodi:type="arc" style="fill:none;stroke:#ff0000;stroke-width:3;stroke-miterlimit:4;stroke-opacity:1;stroke-dasharray:none" id="path4637" sodipodi:cx="248" sodipodi:cy="319.86218" sodipodi:rx="51" sodipodi:ry="15.5" d="M 299,319.86218 A 51,15.5 0 1 1 197,319.86218 51,15.5 0 1 1 299,319.86218 z" transform="translate(491.14633,-174.3782)" />
    <path transform="translate(493.14633,-109.3782)" d="M 299,319.86218 A 51,15.5 0 1 1 197,319.86218 51,15.5 0 1 1 299,319.86218 z" sodipodi:ry="15.5" sodipodi:rx="51" sodipodi:cy="319.86218" sodipodi:cx="248" id="path4639" style="fill:none;stroke:#ff0000;stroke-width:3;stroke-miterlimit:4;stroke-opacity:1;stroke-dasharray:none" sodipodi:type="arc" />
    <path sodipodi:type="arc" style="fill:none;stroke:#ff0000;stroke-width:3;stroke-miterlimit:4;stroke-opacity:1;stroke-dasharray:none" id="path4641" sodipodi:cx="248" sodipodi:cy="319.86218" sodipodi:rx="51" sodipodi:ry="15.5" d="M 299,319.86218 A 51,15.5 0 1 1 197,319.86218 51,15.5 0 1 1 299,319.86218 z" transform="translate(506.14633,-45.3782)" />
    <path transform="translate(509.14633,2.6218)" d="M 299,319.86218 A 51,15.5 0 1 1 197,319.86218 51,15.5 0 1 1 299,319.86218 z" sodipodi:ry="15.5" sodipodi:rx="51" sodipodi:cy="319.86218" sodipodi:cx="248" id="path4643" style="fill:none;stroke:#ff0000;stroke-width:3;stroke-miterlimit:4;stroke-opacity:1;stroke-dasharray:none" sodipodi:type="arc" />
  </g>
</svg>
